<?xml version="1.0" encoding="UTF-8" standalone="no"?>
<!-- Creator: fig2dev Version 3.2.9a -->
<!-- CreationDate: 2025-01-05 20:00:40 -->
<!-- Magnification: 1.05 -->
<svg	xmlns="http://www.w3.org/2000/svg"
	xmlns:xlink="http://www.w3.org/1999/xlink"
	width="327pt" height="242pt"
	viewBox="5588 2574 5179 3826">
<g fill="none">
<!-- Circle -->
<circle cx="8418" cy="4391" r="20" fill="#ff0000"
	stroke="#ff0000" stroke-width="8px"/>
<!-- Line -->
<polyline points=" 8035,4391 8290,4391"
	stroke="#ff0000" stroke-width="30px" stroke-linecap="round"/>
<!-- Line -->
<polyline points=" 8035,4073 8290,4073"
	stroke="#ff0000" stroke-width="30px" stroke-linecap="round"/>
<!-- Line -->
<polyline points=" 8034,3754 8290,3754"
	stroke="#ff0000" stroke-width="30px" stroke-linecap="round"/>
<!-- Line -->
<polyline points=" 8354,4048 8354,3754"
	stroke="#ff0000" stroke-width="30px" stroke-linecap="round"/>
<!-- Line -->
<polyline points=" 8354,4391 8354,4097"
	stroke="#ff0000" stroke-width="30px" stroke-linecap="round"/>
<!-- Line -->
<polyline points=" 7973,4388 7973,4094"
	stroke="#ff0000" stroke-width="30px" stroke-linecap="round"/>
<!-- Line -->
<polyline points=" 7972,4048 7972,3754"
	stroke="#ff0000" stroke-width="30px" stroke-linecap="round"/>
<!-- Circle -->
<circle cx="7051" cy="6284" r="28" fill="#ff0000"
	stroke="#ff0000" stroke-width="8px"/>
<!-- Line -->
<polyline points=" 6508,6284 6869,6284"
	stroke="#ff0000" stroke-width="30px" stroke-linecap="round"/>
<!-- Line -->
<polyline points=" 6508,5834 6869,5834"
	stroke="#ff0000" stroke-width="30px" stroke-linecap="round"/>
<!-- Line -->
<polyline points=" 6507,5382 6869,5382"
	stroke="#ff0000" stroke-width="30px" stroke-linecap="round"/>
<!-- Line -->
<polyline points=" 6960,5798 6960,5382"
	stroke="#ff0000" stroke-width="30px" stroke-linecap="round"/>
<!-- Line -->
<polyline points=" 6960,6284 6960,5868"
	stroke="#ff0000" stroke-width="30px" stroke-linecap="round"/>
<!-- Line -->
<polyline points=" 6420,6280 6420,5864"
	stroke="#ff0000" stroke-width="30px" stroke-linecap="round"/>
<!-- Line -->
<polyline points=" 6419,5798 6419,5382"
	stroke="#ff0000" stroke-width="30px" stroke-linecap="round"/>
<!-- Circle -->
<circle cx="10713" cy="4391" r="20" fill="#ff0000"
	stroke="#ff0000" stroke-width="8px"/>
<!-- Circle -->
<circle cx="10173" cy="4391" r="20" fill="#ff0000"
	stroke="#ff0000" stroke-width="8px"/>
<!-- Circle -->
<circle cx="9629" cy="4391" r="20" fill="#ff0000"
	stroke="#ff0000" stroke-width="8px"/>
<!-- Circle -->
<circle cx="9098" cy="4391" r="20" fill="#ff0000"
	stroke="#ff0000" stroke-width="8px"/>
<!-- Circle -->
<circle cx="7878" cy="4391" r="20" fill="#ff0000"
	stroke="#ff0000" stroke-width="8px"/>
<!-- Circle -->
<circle cx="7334" cy="4391" r="20" fill="#ff0000"
	stroke="#ff0000" stroke-width="8px"/>
<!-- Circle -->
<circle cx="6803" cy="4391" r="20" fill="#ff0000"
	stroke="#ff0000" stroke-width="8px"/>
<!-- Line -->
<polyline points=" 10330,4391 10585,4391"
	stroke="#ff0000" stroke-width="30px" stroke-linecap="round"/>
<!-- Line -->
<polyline points=" 10330,4073 10585,4073"
	stroke="#ff0000" stroke-width="30px" stroke-linecap="round"/>
<!-- Line -->
<polyline points=" 10329,3754 10585,3754"
	stroke="#ff0000" stroke-width="30px" stroke-linecap="round"/>
<!-- Line -->
<polyline points=" 10649,4048 10649,3754"
	stroke="#ff0000" stroke-width="30px" stroke-linecap="round"/>
<!-- Line -->
<polyline points=" 10649,4391 10649,4097"
	stroke="#ff0000" stroke-width="30px" stroke-linecap="round"/>
<!-- Line -->
<polyline points=" 10268,4388 10268,4094"
	stroke="#ff0000" stroke-width="30px" stroke-linecap="round"/>
<!-- Line -->
<polyline points=" 10266,4048 10266,3754"
	stroke="#ff0000" stroke-width="30px" stroke-linecap="round"/>
<!-- Line -->
<polyline points=" 9790,4391 10045,4391"
	stroke="#ff0000" stroke-width="30px" stroke-linecap="round"/>
<!-- Line -->
<polyline points=" 9790,4073 10045,4073"
	stroke="#ff0000" stroke-width="30px" stroke-linecap="round"/>
<!-- Line -->
<polyline points=" 9789,3754 10045,3754"
	stroke="#ff0000" stroke-width="30px" stroke-linecap="round"/>
<!-- Line -->
<polyline points=" 10109,4048 10109,3754"
	stroke="#ff0000" stroke-width="30px" stroke-linecap="round"/>
<!-- Line -->
<polyline points=" 10109,4391 10109,4097"
	stroke="#ff0000" stroke-width="30px" stroke-linecap="round"/>
<!-- Line -->
<polyline points=" 9728,4388 9728,4094"
	stroke="#ff0000" stroke-width="30px" stroke-linecap="round"/>
<!-- Line -->
<polyline points=" 9727,4048 9727,3754"
	stroke="#ff0000" stroke-width="30px" stroke-linecap="round"/>
<!-- Line -->
<polyline points=" 9246,4391 9501,4391"
	stroke="#ff0000" stroke-width="30px" stroke-linecap="round"/>
<!-- Line -->
<polyline points=" 9246,4073 9501,4073"
	stroke="#ff0000" stroke-width="30px" stroke-linecap="round"/>
<!-- Line -->
<polyline points=" 9245,3754 9501,3754"
	stroke="#ff0000" stroke-width="30px" stroke-linecap="round"/>
<!-- Line -->
<polyline points=" 9565,4048 9565,3754"
	stroke="#ff0000" stroke-width="30px" stroke-linecap="round"/>
<!-- Line -->
<polyline points=" 9565,4391 9565,4097"
	stroke="#ff0000" stroke-width="30px" stroke-linecap="round"/>
<!-- Line -->
<polyline points=" 9184,4388 9184,4094"
	stroke="#ff0000" stroke-width="30px" stroke-linecap="round"/>
<!-- Line -->
<polyline points=" 9183,4048 9183,3754"
	stroke="#ff0000" stroke-width="30px" stroke-linecap="round"/>
<!-- Line -->
<polyline points=" 8715,4391 8970,4391"
	stroke="#ff0000" stroke-width="30px" stroke-linecap="round"/>
<!-- Line -->
<polyline points=" 8715,4073 8970,4073"
	stroke="#ff0000" stroke-width="30px" stroke-linecap="round"/>
<!-- Line -->
<polyline points=" 8714,3754 8970,3754"
	stroke="#ff0000" stroke-width="30px" stroke-linecap="round"/>
<!-- Line -->
<polyline points=" 9034,4048 9034,3754"
	stroke="#ff0000" stroke-width="30px" stroke-linecap="round"/>
<!-- Line -->
<polyline points=" 9034,4391 9034,4097"
	stroke="#ff0000" stroke-width="30px" stroke-linecap="round"/>
<!-- Line -->
<polyline points=" 8653,4388 8653,4094"
	stroke="#ff0000" stroke-width="30px" stroke-linecap="round"/>
<!-- Line -->
<polyline points=" 8651,4048 8651,3754"
	stroke="#ff0000" stroke-width="30px" stroke-linecap="round"/>
<!-- Line -->
<polyline points=" 7496,4391 7751,4391"
	stroke="#ff0000" stroke-width="30px" stroke-linecap="round"/>
<!-- Line -->
<polyline points=" 7496,4073 7751,4073"
	stroke="#ff0000" stroke-width="30px" stroke-linecap="round"/>
<!-- Line -->
<polyline points=" 7494,3754 7751,3754"
	stroke="#ff0000" stroke-width="30px" stroke-linecap="round"/>
<!-- Line -->
<polyline points=" 7814,4048 7814,3754"
	stroke="#ff0000" stroke-width="30px" stroke-linecap="round"/>
<!-- Line -->
<polyline points=" 7814,4391 7814,4097"
	stroke="#ff0000" stroke-width="30px" stroke-linecap="round"/>
<!-- Line -->
<polyline points=" 7433,4388 7433,4094"
	stroke="#ff0000" stroke-width="30px" stroke-linecap="round"/>
<!-- Line -->
<polyline points=" 7432,4048 7432,3754"
	stroke="#ff0000" stroke-width="30px" stroke-linecap="round"/>
<!-- Line -->
<polyline points=" 6952,4391 7207,4391"
	stroke="#ff0000" stroke-width="30px" stroke-linecap="round"/>
<!-- Line -->
<polyline points=" 6952,4073 7207,4073"
	stroke="#ff0000" stroke-width="30px" stroke-linecap="round"/>
<!-- Line -->
<polyline points=" 6950,3754 7207,3754"
	stroke="#ff0000" stroke-width="30px" stroke-linecap="round"/>
<!-- Line -->
<polyline points=" 7270,4048 7270,3754"
	stroke="#ff0000" stroke-width="30px" stroke-linecap="round"/>
<!-- Line -->
<polyline points=" 7270,4391 7270,4097"
	stroke="#ff0000" stroke-width="30px" stroke-linecap="round"/>
<!-- Line -->
<polyline points=" 6889,4388 6889,4094"
	stroke="#ff0000" stroke-width="30px" stroke-linecap="round"/>
<!-- Line -->
<polyline points=" 6888,4048 6888,3754"
	stroke="#ff0000" stroke-width="30px" stroke-linecap="round"/>
<!-- Line -->
<polyline points=" 6420,4391 6675,4391"
	stroke="#ff0000" stroke-width="30px" stroke-linecap="round"/>
<!-- Line -->
<polyline points=" 6420,4073 6675,4073"
	stroke="#ff0000" stroke-width="30px" stroke-linecap="round"/>
<!-- Line -->
<polyline points=" 6419,3754 6675,3754"
	stroke="#ff0000" stroke-width="30px" stroke-linecap="round"/>
<!-- Line -->
<polyline points=" 6739,4048 6739,3754"
	stroke="#ff0000" stroke-width="30px" stroke-linecap="round"/>
<!-- Line -->
<polyline points=" 6739,4391 6739,4097"
	stroke="#ff0000" stroke-width="30px" stroke-linecap="round"/>
<!-- Line -->
<polyline points=" 6358,4388 6358,4094"
	stroke="#ff0000" stroke-width="30px" stroke-linecap="round"/>
<!-- Line -->
<polyline points=" 6357,4048 6357,3754"
	stroke="#ff0000" stroke-width="30px" stroke-linecap="round"/>
<!-- Line -->
<polyline points=" 5940,3375 5940,4500 6300,4500"
	stroke="#000000" stroke-width="8px"/>
<!-- Line -->
<polyline points=" 5940,3375 10755,3375 10755,3465"
	stroke="#000000" stroke-width="8px"/>
<!-- Line -->
<polyline points=" 10170,3375 10170,3465"
	stroke="#000000" stroke-width="8px"/>
<!-- Line -->
<polyline points=" 9630,3375 9630,3465"
	stroke="#000000" stroke-width="8px"/>
<!-- Line -->
<polyline points=" 9090,3375 9090,3465"
	stroke="#000000" stroke-width="8px"/>
<!-- Line -->
<polyline points=" 8505,3375 8505,3465"
	stroke="#000000" stroke-width="8px"/>
<!-- Line -->
<polyline points=" 7875,3375 7875,3465"
	stroke="#000000" stroke-width="8px"/>
<!-- Line -->
<polyline points=" 7335,3375 7335,3465"
	stroke="#000000" stroke-width="8px"/>
<!-- Line -->
<polyline points=" 6795,3375 6795,3465"
	stroke="#000000" stroke-width="8px"/>
<!-- Line -->
<polyline points=" 5940,3690 6030,3690"
	stroke="#000000" stroke-width="8px"/>
<!-- Text -->
<text xml:space="preserve" x="6570" y="4590" fill="#000000" font-family="Times" font-style="normal" font-weight="normal" font-size="133" text-anchor="middle">[7:0]</text>
<!-- Text -->
<text xml:space="preserve" x="7065" y="4590" fill="#000000" font-family="Times" font-style="normal" font-weight="normal" font-size="133" text-anchor="middle">[15:8]</text>
<!-- Text -->
<text xml:space="preserve" x="7605" y="4590" fill="#000000" font-family="Times" font-style="normal" font-weight="normal" font-size="133" text-anchor="middle">[23:16]</text>
<!-- Text -->
<text xml:space="preserve" x="8145" y="4590" fill="#000000" font-family="Times" font-style="normal" font-weight="normal" font-size="133" text-anchor="middle">[31:24]</text>
<!-- Text -->
<text xml:space="preserve" x="9630" y="4905" fill="#000000" font-family="Times" font-style="normal" font-weight="normal" font-size="200" text-anchor="middle">PORTD</text>
<!-- Text -->
<text xml:space="preserve" x="10440" y="4590" fill="#000000" font-family="Times" font-style="normal" font-weight="normal" font-size="133" text-anchor="middle">[31:24]</text>
<!-- Text -->
<text xml:space="preserve" x="9900" y="4590" fill="#000000" font-family="Times" font-style="normal" font-weight="normal" font-size="133" text-anchor="middle">[23:16]</text>
<!-- Text -->
<text xml:space="preserve" x="9360" y="4590" fill="#000000" font-family="Times" font-style="normal" font-weight="normal" font-size="133" text-anchor="middle">[15:8]</text>
<!-- Text -->
<text xml:space="preserve" x="8865" y="4590" fill="#000000" font-family="Times" font-style="normal" font-weight="normal" font-size="133" text-anchor="middle">[7:0]</text>
<!-- Text -->
<text xml:space="preserve" x="7335" y="4905" fill="#000000" font-family="Times" font-style="normal" font-weight="normal" font-size="200" text-anchor="middle">PORTC</text>
<!-- Text -->
<text xml:space="preserve" x="7020" y="5625" fill="#000000" font-family="Times" font-style="normal" font-weight="normal" font-size="133" text-anchor="start">[1]</text>
<!-- Text -->
<text xml:space="preserve" x="7020" y="6075" fill="#000000" font-family="Times" font-style="normal" font-weight="normal" font-size="133" text-anchor="start">[2]</text>
<!-- Text -->
<text xml:space="preserve" x="7110" y="6345" fill="#000000" font-family="Times" font-style="normal" font-weight="normal" font-size="133" text-anchor="start">[7]</text>
<!-- Text -->
<text xml:space="preserve" x="6345" y="6075" fill="#000000" font-family="Times" font-style="normal" font-weight="normal" font-size="133" text-anchor="end">[4]</text>
<!-- Text -->
<text xml:space="preserve" x="6345" y="5625" fill="#000000" font-family="Times" font-style="normal" font-weight="normal" font-size="133" text-anchor="end">[5]</text>
<!-- Text -->
<text xml:space="preserve" x="6705" y="5310" fill="#000000" font-family="Times" font-style="normal" font-weight="normal" font-size="133" text-anchor="middle">[0]</text>
<!-- Text -->
<text xml:space="preserve" x="6705" y="5760" fill="#000000" font-family="Times" font-style="normal" font-weight="normal" font-size="133" text-anchor="middle">[6]</text>
<!-- Text -->
<text xml:space="preserve" x="6705" y="6210" fill="#000000" font-family="Times" font-style="normal" font-weight="normal" font-size="133" text-anchor="middle">[3]</text>
<!-- Text -->
<text xml:space="preserve" x="6570" y="3600" fill="#0000ff" font-family="Times" font-style="normal" font-weight="normal" font-size="200" text-anchor="middle">0</text>
<!-- Text -->
<text xml:space="preserve" x="7605" y="3600" fill="#0000ff" font-family="Times" font-style="normal" font-weight="normal" font-size="200" text-anchor="middle">2</text>
<!-- Text -->
<text xml:space="preserve" x="8190" y="3600" fill="#0000ff" font-family="Times" font-style="normal" font-weight="normal" font-size="200" text-anchor="middle">3</text>
<!-- Text -->
<text xml:space="preserve" x="8865" y="3600" fill="#0000ff" font-family="Times" font-style="normal" font-weight="normal" font-size="200" text-anchor="middle">4</text>
<!-- Text -->
<text xml:space="preserve" x="9405" y="3600" fill="#0000ff" font-family="Times" font-style="normal" font-weight="normal" font-size="200" text-anchor="middle">5</text>
<!-- Text -->
<text xml:space="preserve" x="9945" y="3600" fill="#0000ff" font-family="Times" font-style="normal" font-weight="normal" font-size="200" text-anchor="middle">6</text>
<!-- Text -->
<text xml:space="preserve" x="10485" y="3600" fill="#0000ff" font-family="Times" font-style="normal" font-weight="normal" font-size="200" text-anchor="middle">7</text>
<!-- Text -->
<text xml:space="preserve" x="7110" y="3600" fill="#0000ff" font-family="Times" font-style="normal" font-weight="normal" font-size="200" text-anchor="middle">1</text>
<!-- Text -->
<text xml:space="preserve" x="5940" y="2745" fill="#000000" font-family="Times" font-style="normal" font-weight="normal" font-size="200" text-anchor="start">Kijelző karakterpozíciók:</text>
<!-- Text -->
<text xml:space="preserve" x="6165" y="4140" fill="#008f00" font-family="Times" font-style="normal" font-weight="normal" font-size="200" text-anchor="end">0</text>
<!-- Text -->
<text xml:space="preserve" x="8550" y="3195" fill="#0000ff" font-family="Times" font-style="normal" font-weight="normal" font-size="200" text-anchor="middle">oszlop</text>
<!-- Text -->
<text xml:space="preserve" x="5850" y="4140" fill="#008f00" font-family="Times" font-style="normal" font-weight="normal" font-size="200" text-anchor="end">sor</text>
</g>
</svg>
